<svg xmlns="http://www.w3.org/2000/svg" xmlns:xlink="http://www.w3.org/1999/xlink" width="90" zoomAndPan="magnify" viewBox="0 0 67.5 30.000001" height="40" preserveAspectRatio="xMidYMid meet" version="1.0"><defs><g/><clipPath id="2a77eb2fee"><path d="M 0.847656 0 L 66.167969 0 L 66.167969 29.03125 L 0.847656 29.03125 Z M 0.847656 0 " clip-rule="nonzero"/></clipPath><clipPath id="3847a799b6"><rect x="0" width="67" y="0" height="30"/></clipPath></defs><g clip-path="url(#2a77eb2fee)"><g transform="matrix(1, 0, 0, 1, 0, 0.000000000000005718)"><g clip-path="url(#3847a799b6)"><g fill="#ffffff" fill-opacity="1"><g transform="translate(-1.328182, 26.519459)"><g><path d="M 15.09375 0 L 10.109375 -9.453125 L 7.71875 -9.453125 L 7.71875 0 L 2.765625 0 L 2.765625 -24.75 L 12.53125 -24.75 C 14.007812 -24.75 15.257812 -24.441406 16.28125 -23.828125 C 17.3125 -23.222656 18.113281 -22.429688 18.6875 -21.453125 C 19.269531 -20.472656 19.628906 -19.410156 19.765625 -18.265625 C 19.910156 -17.117188 19.828125 -16 19.515625 -14.90625 C 19.203125 -13.8125 18.671875 -12.84375 17.921875 -12 C 17.171875 -11.15625 16.179688 -10.5625 14.953125 -10.21875 L 20.703125 0 Z M 7.71875 -14.265625 L 12.078125 -14.265625 C 12.753906 -14.265625 13.289062 -14.445312 13.6875 -14.8125 C 14.09375 -15.1875 14.363281 -15.648438 14.5 -16.203125 C 14.644531 -16.753906 14.644531 -17.304688 14.5 -17.859375 C 14.363281 -18.421875 14.09375 -18.882812 13.6875 -19.25 C 13.289062 -19.625 12.753906 -19.8125 12.078125 -19.8125 L 7.71875 -19.8125 Z M 7.71875 -14.265625 "/></g></g></g><g fill="#ffffff" fill-opacity="1"><g transform="translate(14.562083, 26.519459)"><g><path d="M 20.53125 -8.625 C 20.53125 -6.9375 20.207031 -5.492188 19.5625 -4.296875 C 18.914062 -3.097656 18.0625 -2.140625 17 -1.421875 C 15.9375 -0.703125 14.769531 -0.222656 13.5 0.015625 C 12.226562 0.253906 10.953125 0.253906 9.671875 0.015625 C 8.390625 -0.222656 7.21875 -0.703125 6.15625 -1.421875 C 5.101562 -2.140625 4.25 -3.097656 3.59375 -4.296875 C 2.945312 -5.492188 2.625 -6.9375 2.625 -8.625 L 2.625 -24.75 L 7.578125 -24.75 L 7.578125 -8.65625 C 7.578125 -7.613281 7.847656 -6.78125 8.390625 -6.15625 C 8.929688 -5.539062 9.597656 -5.128906 10.390625 -4.921875 C 11.191406 -4.710938 11.988281 -4.710938 12.78125 -4.921875 C 13.582031 -5.128906 14.253906 -5.539062 14.796875 -6.15625 C 15.335938 -6.78125 15.609375 -7.613281 15.609375 -8.65625 L 15.609375 -24.75 L 20.53125 -24.75 Z M 20.53125 -8.625 "/></g></g></g><g fill="#ffffff" fill-opacity="1"><g transform="translate(32.460496, 26.519459)"><g><path d="M 1.625 -1.59375 L 2.25 -6.78125 C 3.195312 -6.113281 4.132812 -5.632812 5.0625 -5.34375 C 6 -5.0625 6.847656 -4.894531 7.609375 -4.84375 C 8.378906 -4.800781 8.945312 -4.789062 9.3125 -4.8125 C 10.050781 -4.851562 10.679688 -5.109375 11.203125 -5.578125 C 11.722656 -6.054688 11.945312 -6.632812 11.875 -7.3125 C 11.832031 -8.019531 11.566406 -8.554688 11.078125 -8.921875 C 10.597656 -9.296875 10.007812 -9.597656 9.3125 -9.828125 C 8.019531 -10.316406 6.8125 -10.878906 5.6875 -11.515625 C 4.570312 -12.148438 3.671875 -12.9375 2.984375 -13.875 C 2.304688 -14.820312 1.96875 -15.988281 1.96875 -17.375 C 1.96875 -18.757812 2.257812 -20.007812 2.84375 -21.125 C 3.4375 -22.25 4.265625 -23.144531 5.328125 -23.8125 C 6.390625 -24.488281 7.601562 -24.863281 8.96875 -24.9375 C 9.613281 -24.976562 10.398438 -24.953125 11.328125 -24.859375 C 12.265625 -24.765625 13.53125 -24.441406 15.125 -23.890625 L 14.515625 -19.109375 C 13.148438 -19.660156 12.0625 -19.976562 11.25 -20.0625 C 10.445312 -20.144531 9.847656 -20.175781 9.453125 -20.15625 C 8.578125 -20.101562 7.9375 -19.800781 7.53125 -19.25 C 7.125 -18.695312 6.945312 -18.070312 7 -17.375 C 7.0625 -16.6875 7.359375 -16.160156 7.890625 -15.796875 C 8.421875 -15.441406 9.046875 -15.140625 9.765625 -14.890625 C 11.054688 -14.429688 12.242188 -13.859375 13.328125 -13.171875 C 14.410156 -12.492188 15.28125 -11.675781 15.9375 -10.71875 C 16.601562 -9.757812 16.9375 -8.625 16.9375 -7.3125 C 16.9375 -5.945312 16.632812 -4.707031 16.03125 -3.59375 C 15.425781 -2.488281 14.5625 -1.601562 13.4375 -0.9375 C 12.320312 -0.269531 10.992188 0.109375 9.453125 0.203125 C 8.992188 0.234375 8.363281 0.21875 7.5625 0.15625 C 6.769531 0.09375 5.863281 -0.0664062 4.84375 -0.328125 C 3.832031 -0.597656 2.757812 -1.019531 1.625 -1.59375 Z M 1.625 -1.59375 "/></g></g></g><g fill="#ffffff" fill-opacity="1"><g transform="translate(45.4424, 26.519459)"><g><path d="M 20.078125 0 L 15.125 0 L 15.125 -9.90625 L 7.71875 -9.90625 L 7.71875 0 L 2.765625 0 L 2.765625 -24.75 L 7.71875 -24.75 L 7.71875 -14.859375 L 15.125 -14.859375 L 15.125 -24.75 L 20.078125 -24.75 Z M 20.078125 0 "/></g></g></g></g></g></g></svg>